<svg xmlns="http://www.w3.org/2000/svg" viewBox="0 0 100 100" width="100" height="100">
  <!-- Background circle -->
  <circle cx="50" cy="50" r="48" fill="#7c3aed"/>
  
  <!-- Hands forming heart shape - OT symbol -->
  <g fill="#ffffff">
    <!-- Left hand -->
    <path d="M30 55 Q25 45 30 38 Q35 32 42 35 L45 50 Q40 52 35 55 Z" opacity="0.9"/>
    <!-- Right hand -->
    <path d="M70 55 Q75 45 70 38 Q65 32 58 35 L55 50 Q60 52 65 55 Z" opacity="0.9"/>
    <!-- Heart in center -->
    <path d="M50 70 L35 55 Q30 48 38 42 Q46 36 50 45 Q54 36 62 42 Q70 48 65 55 Z"/>
  </g>
  
  <!-- Small plus sign for healthcare -->
  <rect x="47" y="22" width="6" height="14" rx="1" fill="#f472b6"/>
  <rect x="44" y="26" width="12" height="6" rx="1" fill="#f472b6"/>
</svg>
